# xmcd
#
# Track frame offsets: 
#        150
#        13401
#        48959
#        79117
#        120593
#        142130
#        169090
#        194991
#        229288
#        254670
#        277725
#
# Disc length: 3909 seconds
#
# Revision: 0
# Processed by: cddbd v1.5.2PL0 Copyright (c) Steve Scherf et al.
# Submitted via: ExactAudioCopy v0.95a3
#
DISCID=a40f430b
DTITLE=Sons Of Blues - Leverkusen
DYEAR=1900
DGENRE=
TTITLE0=Soul Finger
TTITLE1=If Heartaches Were Nickels
TTITLE2=Bring It On Home
TTITLE3=The Blues Keep Follow Me Around
TTITLE4=Grown Men Cry
TTITLE5=Band Intro\\Turn Back The Hands Of Time
TTITLE6=Flamin' Mamie
TTITLE7=Did You Ever Love A Woman [Berlin DDR 1982]
TTITLE8=Valerie Wellington w\\ Billy Branch - Cold,Cold Secret
TTITLE9=Jayne Cortez w\\ Billy Branch - Bumblebee You Saw Big Mama
TTITLE10=Jayne Cortez and Firespitters w\\ Billy Branch - Cultural Opera
TTITLE10=tions
EXTD=
EXTT0=
EXTT1=
EXTT2=
EXTT3=
EXTT4=
EXTT5=
EXTT6=
EXTT7=
EXTT8=
EXTT9=
EXTT10=
PLAYORDER=
